# xmcd CD database file
#
# Track frame offsets:
#	150
#	22589
#	75237
#	102969
#	152216
#
# Disc length: 2532 seconds
#
# Revision: 1
# Processed by: cddbd v1.5.1PL0 Copyright (c) Steve Scherf et al.
# Submitted via: CDex 1.51
#
DISCID=2409e205
DTITLE=Anthony Davis - Of Blues and Dreams
DYEAR=1978
DGENRE=Jazz
TTITLE0=Of Blues And Dreams
TTITLE1=Suite For Another World - i. Lethe
TTITLE2=Suite For Another World - ii. Graef
TTITLE3=Suite For Another World - iii. Madame Xola
TTITLE4=Estraven
EXTD=YEAR: 1978
EXTT0=
EXTT1=
EXTT2=
EXTT3=
EXTT4=
PLAYORDER=
